<svg t="1594739357152" class="icon" viewBox="0 0 1024 1024" version="1.1" xmlns="http://www.w3.org/2000/svg" p-id="2034" width="200" height="200"><path d="M669.9 557.7H547.2c-9.7 0-17.5-7.8-17.5-17.5v-35.1c0-9.7 7.8-17.5 17.5-17.5h122.7c9.6 0 17.5-7.9 17.5-17.5s-7.9-17.5-17.5-17.5h-87.7c-14.4 0-22.7-16.5-14-28l105.2-140.3c5.8-7.7 4.2-18.7-3.5-24.5-7.7-5.8-18.7-4.2-24.5 3.5l-119.2 159c-7 9.3-21 9.3-28 0L379 263.3c-5.8-7.7-16.8-9.3-24.5-3.5-7.7 5.8-9.3 16.8-3.5 24.5l105 140.2c8.7 11.6 0.4 28-14 28h-87.7c-9.6 0-17.5 7.9-17.5 17.5s7.9 17.5 17.5 17.5H477c9.7 0 17.5 7.8 17.5 17.5v35.1c0 9.7-7.8 17.5-17.5 17.5H354.3c-9.6 0-17.5 7.9-17.5 17.5s7.9 17.5 17.5 17.5H477c9.7 0 17.5 7.8 17.5 17.5v140.3c0 9.6 7.9 17.5 17.5 17.5s17.5-7.9 17.5-17.5V610.3c0-9.7 7.8-17.5 17.5-17.5h122.7c9.6 0 17.5-7.9 17.5-17.5s-7.6-17.6-17.3-17.6z" p-id="2035" fill="#b22222"></path></svg>